<svg xmlns="http://www.w3.org/2000/svg" id="Layer_1" data-name="Layer 1" viewBox="0 0 332.48 105.42"><defs><style>      .cls-1 {        stroke-width: 0px;      }    </style></defs><g id="nmEXgD.tif"><g><path class="cls-1" d="m17.25.15v2.97c0,22.77.1,45.52-.05,68.29-.06,8.93,4.74,14.72,11.53,16.22,7.93,1.76,15.3-1.47,18.88-9.21,3.76-8.14,7.15-16.44,10.43-24.79,4.02-10.22,11.26-15.82,22.25-16.86,7.23-.69,14.16.17,20.38,3.84,8.07,4.77,11.91,15.67,5.41,23.53-1.48,1.78-3.59,3.04-5.53,4.65,1.49,1.08,3.14,2.23,4.76,3.44,7.41,5.52,7.32,17.18,1.2,23.55-7.2,7.49-16.31,9.08-26.14,8.64-8.36-.38-14.91-4.12-20.14-10.5-1.31-1.6-1.37-2.91-.34-4.69,2.24-3.9,4.27-7.94,6.26-11.7,2.56,2.77,5,5.93,7.97,8.5,4.77,4.12,10.96,4.85,15.33,1.12,3.57-3.04,4.36-10.34-2.07-11.56-2.01-.38-4.08-.61-6.12-.65-3.52-.07-3.53,0-3.54-3.45,0-1.99.03-3.99.02-5.98,0-1.37.6-1.79,1.99-1.81,1.95-.04,3.96-.25,5.85-.74,2.79-.72,4.51-3.16,4.48-5.84-.02-2.18-1.75-3.99-4.58-4.8-4.28-1.22-9.05.19-11.7,4.56-3.26,5.37-6.07,11.09-8.5,16.9-3.67,8.79-7.78,17.17-14.69,23.96-7.35,7.22-22.39,10.19-32.34,4.69C6.66,96.02.52,86.22.4,73c-.17-19.44-.06-38.88.02-58.32,0-1.06.58-2.47,1.38-3.12C6.26,7.93,10.86,4.48,15.44.99c.43-.33,1-.47,1.8-.84Z"></path><path class="cls-1" d="m50.98,65.2c-6.31-14.68-20.3-19.01-31.85-5.94v-3.56c0-3.23.18-6.48-.05-9.7-.23-3.26,1.46-5.21,3.99-6.51,7.57-3.89,15.33-3.54,23.04-.48,4.79,1.9,8.28,5.3,10.47,9.97.33.69.6,1.67.36,2.32-1.61,4.41-3.34,8.77-5.07,13.11-.13.32-.57.51-.9.78h0Z"></path><path class="cls-1" d="m57.58,39.57c-5.4-.02-9.15-3.8-9.13-9.21.02-5.38,3.8-9.21,9.12-9.24,5.49-.03,9.27,3.8,9.24,9.35-.03,5.42-3.78,9.12-9.23,9.1Z"></path></g></g><g><path class="cls-1" d="m141.96,70.45c0,.38-.02.7-.05.97-.03.27-.08.48-.15.64-.07.16-.15.28-.24.36s-.21.12-.32.12h-6.33v20.37c0,.13-.04.25-.13.35-.08.1-.22.19-.42.25s-.46.12-.79.16-.75.06-1.24.06-.91-.02-1.24-.06-.6-.09-.79-.16-.34-.15-.42-.25c-.08-.1-.13-.22-.13-.35v-20.37h-6.33c-.13,0-.24-.04-.33-.12-.09-.08-.17-.2-.23-.36-.07-.16-.11-.38-.15-.64-.03-.27-.05-.59-.05-.97s.02-.72.05-1c.03-.27.08-.49.15-.65.06-.16.14-.28.23-.35.09-.07.2-.11.33-.11h17.81c.12,0,.22.04.32.11s.18.19.24.35c.06.16.11.38.15.65.03.27.05.61.05,1Z"></path><path class="cls-1" d="m157.05,83.73c0,.6-.13,1.04-.4,1.33-.27.29-.63.43-1.1.43h-10.6c0,.74.09,1.42.26,2.02s.46,1.12.84,1.54c.38.42.88.75,1.48.97s1.33.33,2.18.33,1.61-.06,2.27-.19c.65-.12,1.21-.26,1.69-.41.48-.15.87-.29,1.18-.41s.57-.19.76-.19c.12,0,.21.02.29.07s.14.13.2.24c.05.12.09.28.11.5s.03.49.03.81c0,.29,0,.53-.02.73-.01.2-.03.37-.06.52-.03.14-.06.26-.12.36-.05.1-.12.19-.21.28-.08.09-.31.21-.69.37-.38.16-.86.31-1.45.46s-1.26.28-2.01.39c-.75.11-1.56.17-2.42.17-1.55,0-2.91-.2-4.07-.59-1.17-.39-2.14-.98-2.92-1.78s-1.36-1.8-1.75-3.01c-.38-1.21-.58-2.63-.58-4.26s.2-2.95.61-4.19c.4-1.24.99-2.3,1.76-3.16.77-.87,1.7-1.53,2.8-1.98,1.1-.46,2.34-.68,3.72-.68,1.46,0,2.7.21,3.74.64s1.88,1.03,2.55,1.79,1.15,1.66,1.46,2.71.47,2.17.47,3.4v.78Zm-4.77-1.41c.04-1.38-.24-2.46-.83-3.25-.59-.79-1.51-1.18-2.74-1.18-.62,0-1.17.12-1.63.35-.46.23-.85.55-1.15.95-.31.4-.54.87-.7,1.41-.16.54-.26,1.12-.28,1.73h7.34Z"></path><path class="cls-1" d="m174.04,90.17c0,.34,0,.62-.03.85s-.05.42-.08.58-.07.28-.12.38-.15.22-.3.37-.42.33-.8.55-.81.41-1.29.58-1.01.31-1.57.41-1.15.16-1.75.16c-1.34,0-2.53-.21-3.56-.62s-1.9-1.03-2.61-1.85-1.23-1.81-1.59-2.98-.54-2.51-.54-4.02c0-1.75.22-3.25.65-4.52s1.04-2.32,1.83-3.15,1.71-1.45,2.77-1.86,2.24-.61,3.52-.61c.52,0,1.03.05,1.53.14s.97.21,1.41.37.83.33,1.17.53.59.36.73.51.24.26.3.36.1.22.14.38.06.35.08.58.03.5.03.83c0,.75-.07,1.29-.2,1.59s-.3.46-.51.46c-.22,0-.46-.09-.7-.27s-.54-.38-.88-.61-.74-.42-1.21-.61-1.03-.27-1.68-.27c-1.28,0-2.25.49-2.93,1.47s-1.02,2.42-1.02,4.33c0,.94.08,1.76.25,2.48s.42,1.32.75,1.8.75.84,1.25,1.08c.5.24,1.08.36,1.75.36s1.26-.1,1.75-.3.92-.43,1.28-.67.67-.47.92-.67.46-.3.62-.3c.12,0,.21.03.29.1s.14.19.19.36.08.4.11.67.04.62.04,1.05Z"></path><path class="cls-1" d="m194,92.95c0,.13-.04.24-.12.34s-.21.18-.39.24-.43.11-.75.15-.71.05-1.18.05-.88-.02-1.2-.05-.57-.08-.75-.15-.31-.15-.39-.24-.12-.21-.12-.34v-9.94c0-.85-.06-1.51-.19-1.99s-.3-.9-.54-1.24-.54-.61-.91-.8-.8-.28-1.3-.28c-.62,0-1.26.23-1.89.68s-1.3,1.12-1.99,1.99v11.58c0,.13-.04.24-.12.34s-.21.18-.4.24-.44.11-.75.15-.71.05-1.19.05-.88-.02-1.19-.05-.56-.08-.75-.15-.32-.15-.4-.24-.12-.21-.12-.34v-25.68c0-.13.04-.25.12-.35s.21-.19.4-.26.44-.13.75-.17.71-.06,1.19-.06.88.02,1.19.06.56.09.75.17.32.16.4.26.12.22.12.35v9.63c.85-.83,1.71-1.46,2.59-1.87s1.79-.62,2.74-.62c1.18,0,2.18.2,3,.59s1.47.92,1.97,1.6.86,1.47,1.08,2.37.33,2,.33,3.29v10.68Z"></path><path class="cls-1" d="m215.22,92.95c0,.13-.04.24-.12.34s-.21.18-.39.24-.43.11-.75.15-.71.05-1.18.05-.88-.02-1.2-.05-.57-.08-.75-.15-.31-.15-.39-.24-.12-.21-.12-.34v-9.94c0-.85-.06-1.51-.19-1.99s-.3-.9-.54-1.24-.54-.61-.91-.8-.8-.28-1.3-.28c-.62,0-1.26.23-1.89.68s-1.3,1.12-1.99,1.99v11.58c0,.13-.04.24-.12.34s-.21.18-.4.24-.44.11-.75.15-.71.05-1.19.05-.88-.02-1.19-.05-.56-.08-.75-.15-.32-.15-.4-.24-.12-.21-.12-.34v-17.42c0-.13.03-.24.1-.34s.18-.18.35-.24.39-.11.65-.15.6-.05,1.01-.05.76.02,1.04.05.49.08.63.15.26.15.32.24.1.21.1.34v2.01c.96-1.04,1.94-1.82,2.94-2.34s2.03-.78,3.12-.78c1.18,0,2.18.2,3,.59s1.47.92,1.97,1.59.86,1.46,1.08,2.35.33,1.98.33,3.24v10.76Z"></path><path class="cls-1" d="m237.42,84.06c0,1.48-.2,2.84-.59,4.06s-.98,2.28-1.78,3.16-1.79,1.57-2.99,2.05-2.6.72-4.2.72-2.9-.21-4.04-.64-2.1-1.05-2.85-1.88-1.32-1.83-1.68-3.03-.55-2.57-.55-4.1.2-2.84.6-4.07.99-2.29,1.79-3.16,1.79-1.56,2.98-2.04,2.59-.72,4.19-.72,2.92.21,4.06.63,2.09,1.04,2.84,1.87,1.31,1.83,1.67,3.03.55,2.57.55,4.12Zm-5.06.2c0-.86-.07-1.65-.21-2.37s-.37-1.35-.69-1.88-.76-.95-1.3-1.25-1.22-.45-2.04-.45c-.73,0-1.37.13-1.91.4s-1,.66-1.35,1.17-.62,1.13-.79,1.86-.26,1.55-.26,2.47c0,.86.07,1.65.21,2.37s.37,1.35.69,1.88.75.95,1.3,1.24,1.22.44,2.03.44c.74,0,1.39-.13,1.93-.4s1-.65,1.35-1.16.61-1.12.78-1.85.25-1.55.25-2.47Z"></path><path class="cls-1" d="m245.99,92.95c0,.13-.04.24-.12.34s-.21.18-.4.24-.44.11-.75.15-.71.05-1.19.05-.88-.02-1.19-.05-.56-.08-.75-.15-.32-.15-.4-.24-.12-.21-.12-.34v-25.68c0-.13.04-.25.12-.35s.21-.19.4-.26.44-.13.75-.17.71-.06,1.19-.06.88.02,1.19.06.56.09.75.17.32.16.4.26.12.22.12.35v25.68Z"></path><path class="cls-1" d="m268.27,84.06c0,1.48-.2,2.84-.59,4.06s-.98,2.28-1.78,3.16-1.79,1.57-2.99,2.05-2.6.72-4.2.72-2.9-.21-4.04-.64-2.1-1.05-2.85-1.88-1.32-1.83-1.68-3.03-.55-2.57-.55-4.1.2-2.84.6-4.07.99-2.29,1.79-3.16,1.79-1.56,2.98-2.04,2.59-.72,4.19-.72,2.92.21,4.06.63,2.09,1.04,2.84,1.87,1.31,1.83,1.67,3.03.55,2.57.55,4.12Zm-5.06.2c0-.86-.07-1.65-.21-2.37s-.37-1.35-.69-1.88-.76-.95-1.3-1.25-1.22-.45-2.04-.45c-.73,0-1.37.13-1.91.4s-1,.66-1.35,1.17-.62,1.13-.79,1.86-.26,1.55-.26,2.47c0,.86.07,1.65.21,2.37s.37,1.35.69,1.88.75.95,1.3,1.24,1.22.44,2.03.44c.74,0,1.39-.13,1.93-.4s1-.65,1.35-1.16.61-1.12.78-1.85.25-1.55.25-2.47Z"></path><path class="cls-1" d="m287.62,76.74c0,.62-.07,1.09-.21,1.39s-.32.45-.53.45h-2.05c.29.31.49.67.62,1.06s.19.81.19,1.24c0,1.02-.17,1.92-.51,2.71s-.82,1.45-1.46,1.99-1.39.95-2.29,1.23-1.88.42-2.98.42c-.56,0-1.09-.07-1.6-.21s-.9-.3-1.17-.48c-.16.17-.3.37-.42.61s-.19.5-.19.78c0,.38.17.69.5.93s.8.37,1.4.4l4.24.16c.99.04,1.87.18,2.65.42s1.43.58,1.95,1.02.93.96,1.21,1.57.42,1.31.42,2.09c0,.86-.19,1.67-.57,2.43s-.94,1.42-1.7,1.98-1.7,1-2.84,1.33-2.47.49-3.99.49-2.75-.12-3.8-.35-1.91-.56-2.58-.98-1.16-.92-1.46-1.49-.46-1.21-.46-1.9c0-.43.06-.84.17-1.23s.27-.76.49-1.12.48-.7.79-1.03.67-.64,1.07-.94c-.56-.3-.99-.71-1.3-1.22s-.46-1.08-.46-1.69c0-.77.18-1.47.53-2.1s.81-1.2,1.37-1.71c-.46-.46-.82-1-1.09-1.64s-.41-1.43-.41-2.38c0-1.02.18-1.92.54-2.72s.86-1.48,1.49-2.03,1.4-.98,2.29-1.27,1.86-.44,2.93-.44c.55,0,1.07.03,1.57.1s.97.16,1.4.27h5.53c.22,0,.4.14.54.43s.21.77.21,1.45Zm-5.16,18.03c0-.59-.23-1.04-.7-1.35s-1.11-.48-1.93-.51l-3.5-.1c-.34.25-.61.49-.81.71s-.36.45-.49.65-.21.41-.24.61-.06.4-.06.61c0,.65.33,1.15.99,1.48s1.58.51,2.78.51c.74,0,1.37-.08,1.88-.22s.92-.35,1.23-.6.53-.52.66-.83.2-.63.2-.97Zm-1.15-13.91c0-.94-.26-1.67-.78-2.19s-1.26-.78-2.21-.78c-.48,0-.91.08-1.27.24s-.67.38-.91.66-.42.61-.54.98-.18.76-.18,1.16c0,.89.26,1.58.78,2.1s1.24.77,2.17.77c.5,0,.92-.08,1.29-.23s.67-.37.91-.64.42-.59.55-.95.19-.73.19-1.12Z"></path><path class="cls-1" d="m295.93,69.63c0,.99-.2,1.67-.61,2.05s-1.15.57-2.25.57-1.85-.18-2.24-.55-.58-1.02-.58-1.97.2-1.68.6-2.06,1.15-.58,2.26-.58,1.84.19,2.23.56.59,1.03.59,1.98Zm-.37,23.32c0,.13-.04.24-.12.34s-.21.18-.4.24-.44.11-.75.15-.71.05-1.19.05-.88-.02-1.19-.05-.56-.08-.75-.15-.32-.15-.4-.24-.12-.21-.12-.34v-17.38c0-.13.04-.24.12-.34s.21-.18.4-.25.44-.13.75-.17.71-.06,1.19-.06.88.02,1.19.06.56.09.75.17.32.16.4.25.12.21.12.34v17.38Z"></path><path class="cls-1" d="m316.32,83.73c0,.6-.13,1.04-.4,1.33s-.63.43-1.1.43h-10.61c0,.74.09,1.42.26,2.02s.46,1.12.84,1.54.88.75,1.48.97,1.33.33,2.18.33,1.61-.06,2.27-.19,1.21-.26,1.69-.41.87-.29,1.18-.41.57-.19.76-.19c.12,0,.21.02.29.07s.14.13.2.24.09.28.11.5.03.49.03.81c0,.29,0,.53-.02.73s-.03.37-.06.52-.07.26-.12.36-.12.19-.21.28-.32.21-.69.37-.86.31-1.45.46-1.26.28-2.01.39-1.56.17-2.42.17c-1.55,0-2.91-.2-4.07-.59s-2.14-.98-2.92-1.78-1.36-1.8-1.75-3.01-.58-2.63-.58-4.26.2-2.95.61-4.19.99-2.3,1.76-3.16,1.7-1.53,2.8-1.98,2.34-.68,3.72-.68c1.46,0,2.71.21,3.74.64s1.88,1.03,2.55,1.79,1.15,1.66,1.46,2.71.47,2.17.47,3.4v.78Zm-4.77-1.41c.04-1.38-.24-2.46-.83-3.25s-1.51-1.18-2.74-1.18c-.62,0-1.17.12-1.63.35s-.85.55-1.15.95-.54.87-.7,1.41-.26,1.12-.28,1.73h7.34Z"></path><path class="cls-1" d="m332.39,88.03c0,.99-.19,1.86-.56,2.62s-.9,1.39-1.57,1.89-1.48.89-2.4,1.14-1.93.38-3.01.38c-.65,0-1.27-.05-1.87-.15s-1.12-.22-1.59-.37-.86-.3-1.17-.46-.54-.3-.68-.44-.25-.35-.33-.64-.12-.73-.12-1.3c0-.38.01-.68.04-.91s.07-.41.12-.55.12-.23.2-.27.18-.07.29-.07c.14,0,.35.08.63.24s.63.34,1.04.54.9.38,1.46.55,1.18.25,1.88.25c.44,0,.84-.05,1.18-.14s.64-.22.9-.39.45-.38.58-.64.2-.56.2-.9c0-.39-.12-.73-.36-1.01s-.56-.52-.96-.73-.85-.4-1.35-.59-1.02-.38-1.54-.61-1.04-.48-1.54-.76-.95-.64-1.35-1.05-.72-.92-.96-1.5-.36-1.29-.36-2.11.16-1.6.49-2.29.79-1.29,1.41-1.79,1.36-.88,2.24-1.15,1.87-.41,2.96-.41c.55,0,1.08.04,1.59.12s.98.18,1.4.29.77.24,1.05.38.49.25.62.35.21.2.26.29.09.21.12.35.05.31.07.51.03.45.03.75c0,.35,0,.64-.03.86s-.05.4-.1.53-.11.22-.19.26-.17.07-.27.07c-.12,0-.3-.07-.55-.21s-.56-.28-.93-.44-.8-.3-1.29-.44-1.04-.21-1.67-.21c-.44,0-.83.05-1.15.14s-.59.22-.8.39-.36.37-.47.6-.16.47-.16.73c0,.4.12.74.37,1.02s.57.51.98.72.86.4,1.38.59,1.04.38,1.56.6,1.05.47,1.56.75.97.64,1.38,1.05.73.92.98,1.49.37,1.27.37,2.06Z"></path></g></svg>